<svg xmlns="http://www.w3.org/2000/svg" version="1.1" xmlns:xlink="http://www.w3.org/1999/xlink" viewBox="0 0 200 200"><rect width="200" height="200" fill="url('#gradient')"></rect><defs><linearGradient id="gradient" gradientTransform="rotate(95 0.5 0.5)"><stop offset="0%" stop-color="#282d37"></stop><stop offset="100%" stop-color="#282d37"></stop></linearGradient></defs><g><g fill="#e05e00" transform="matrix(4.838713350412752,0,0,4.838713350412752,11.811907289043788,134.88903746541123)" stroke="#f4f4f6" stroke-width="0.1"><path d="M8.94 0L5.91-5.29L4.50-3.75L4.50 0L1.07 0L1.07-14.22L4.50-14.22L4.50-7.95L5.69-9.76L8.76-14.22L13.00-14.22L8.19-7.93L13.00 0L8.94 0ZM23.58-2.54L23.58 0L13.66 0L13.66-2.15L18.23-6.95Q19.92-8.88 19.92-10.01L19.92-10.01Q19.92-10.93 19.52-11.41Q19.12-11.88 18.36-11.88L18.36-11.88Q17.61-11.88 17.14-11.25Q16.67-10.61 16.67-9.65L16.67-9.65L13.37-9.65Q13.37-10.96 14.02-12.07Q14.68-13.17 15.84-13.80Q17.00-14.42 18.44-14.42L18.44-14.42Q20.74-14.42 21.99-13.36Q23.23-12.29 23.23-10.30L23.23-10.30Q23.23-9.46 22.92-8.67Q22.61-7.87 21.95-7.00Q21.29-6.12 19.82-4.66L19.82-4.66L17.99-2.54L23.58-2.54ZM33.94-14.22L33.94-5.56L35.38-5.56L35.38-3.02L33.94-3.02L33.94 0L30.64 0L30.64-3.02L25.15-3.02L24.95-5.03L30.64-14.19L30.64-14.22L33.94-14.22ZM30.44-9.60L28.09-5.56L30.64-5.56L30.64-9.93L30.44-9.60Z"></path></g></g></svg>